# xmcd CD database file
#
# Track frame offsets:
#	187
#	19665
#	41250
#	65422
#	85597
#	108527
#	127850
#	149535
#	171667
#	194220
#
# Disc length: 2913 seconds
#
# Revision: 0
# Processed by: cddbd v1.5PL3 Copyright (c) Steve Scherf et al.
# Submitted via: CDex 1.51
#
DISCID=8c0b5f0a
DTITLE=Flying Kids - Flying Kids
DYEAR=1993
DGENRE=JPop
TTITLE0=大きくなったら
TTITLE1=虹を輝かせて
TTITLE2=男 VS 女
TTITLE3=王子様のように
TTITLE4=I Wish... Merry X'mas
TTITLE5=ノンストップでいくぜ
TTITLE6=せめて一度だけ
TTITLE7=お楽しみはこれからだ！
TTITLE8=汚れた英雄
TTITLE9=Flying Kids (大人になれない子供たち)
EXTD=YEAR: 1993
EXTT0=
EXTT1=
EXTT2=
EXTT3=
EXTT4=
EXTT5=
EXTT6=
EXTT7=
EXTT8=
EXTT9=
PLAYORDER=
